============ PITBULL- RAIN OVER ME FT MARC ANTHONY HD 1080P ====================

Format                           : MPEG-4
Format profile                   : Base Media / Version 2
Codec ID                         : mp42
File size                        : 138 MiB
Duration                         : 3mn 53s
Overall bit rate                 : 4 951 Kbps
Encoded date                     : UTC 2011-07-19 22:44:01
Tagged date                      : UTC 2011-07-19 22:44:01

Video
ID                               : 1
Format                           : AVC
Format/Info                      : Advanced Video Codec
Format profile                   : High@L4.0
Format settings, CABAC           : Yes
Format settings, ReFrames        : 1 frame
Codec ID                         : avc1
Codec ID/Info                    : Advanced Video Coding
Duration                         : 3mn 53s
Bit rate mode                    : Variable
Bit rate                         : 4 793 Kbps
Maximum bit rate                 : 12.7 Mbps
Width                            : 1 920 pixels
Height                           : 1 080 pixels
Display aspect ratio             : 16:9
Frame rate mode                  : Variable
Frame rate                       : 23.976 fps
Minimum frame rate               : 17.241 fps
Maximum frame rate               : 24.390 fps
Color space                      : YUV
Chroma subsampling               : 4:2:0
Bit depth                        : 8 bits
Scan type                        : Progressive
Bits/(Pixel*Frame)               : 0.096
Stream size                      : 134 MiB (97%)
Tagged date                      : UTC 2011-07-19 22:44:02

Audio
ID                               : 2
Format                           : AAC
Format/Info                      : Advanced Audio Codec
Format version                   : Version 4
Format profile                   : LC
Format settings, SBR             : No
Codec ID                         : 40
Duration                         : 3mn 53s
Bit rate mode                    : Variable
Bit rate                         : 152 Kbps
Maximum bit rate                 : 178 Kbps
Channel(s)                       : 2 channels
Channel positions                : Front: L R
Sampling rate                    : 44.1 KHz
Stream size                      : 4.22 MiB (3%)

======================= SCREEN SHOTS ====================================

                        http://bayimg.com/mAJgFAaDe
                        http://bayimg.com/mAjgHAADE
                        http://bayimg.com/MAJgJAaDe

===========  LIFE IS TOO SHORT SO, ENJOY EVERY MOMENT ====================== 

===================================================================================
 ##  #  # # # # ### ### ###     ##  #   ###  #   ## ### ===========================
#   # # ### ### #   # #  #      # # #   #   # # #   # =============================  
#   # # ### ### ##  # #  #      ##  #   ##  ###  #  ##=============================  
#   # # # # # # #   # #  #      #   #   #   # #   # # =============================  
 ##  #  # # # # ### # #  #      #   ### ### # # ##  ###===========================
==================================================================================
		
